# xmcd
#
# Track frame offsets: 
#        150
#        18008
#        40680
#        64708
#        83167
#        102572
#        128222
#        156182
#        176430
#        189793
#        215391
#        241664
#        262974
#        284221
#        314386
#        334726
#
# Disc length: 4783 seconds
#
# Revision: 0
# Processed by: cddbd v1.5.1PL0 Copyright (c) Steve Scherf et al.
# Submitted via: ExactAudioCopy v0.95a5
#
DISCID=d512ad10
DTITLE=Diana Krall - Love's Songs
DYEAR=2004
DGENRE=Ballad
TTITLE0=I Remember You
TTITLE1=Just the Way You Are
TTITLE2=Let's Face the Music and Dance
TTITLE3=The Girl in the Other Room
TTITLE4=Hit That Jive Jack
TTITLE5=They Can't Take That Away from Me
TTITLE6=I've Got You Under My Skin
TTITLE7=Temptation
TTITLE8=I'm an Errand Girl for Rhythm
TTITLE9=Departure Bay
TTITLE10=Dancing in the Dark
TTITLE11=The Look of Love
TTITLE12=As Long as I Live
TTITLE13=Besame Mucho
TTITLE14=S'Wonderful
TTITLE15=I've Got The World on a String
EXTD=
EXTT0=
EXTT1=
EXTT2=
EXTT3=
EXTT4=
EXTT5=
EXTT6=
EXTT7=
EXTT8=
EXTT9=
EXTT10=
EXTT11=
EXTT12=
EXTT13=
EXTT14=
EXTT15=
PLAYORDER=
